<?xml version="1.0" encoding="UTF-8"?>
<svg id="Layer_1" data-name="Layer 1" xmlns="http://www.w3.org/2000/svg" version="1.1" viewBox="0 0 1200 1200">
  <defs>
    <style>
      .cls-1 {
        fill: #00e2f2;
      }

      .cls-1, .cls-2, .cls-3, .cls-4 {
        stroke-width: 0px;
      }

      .cls-2 {
        fill: #74edff;
      }

      .cls-3 {
        fill: #38e5ff;
      }

      .cls-4 {
        fill: #9ef2ff;
      }
    </style>
  </defs>
  <path class="cls-1" d="M989.5,567.1l132.9.4v-37.3c.1,0-132.9-.4-132.9-.4v-73.4l133.2.4v-37.3c.1,0-133.2-.4-133.2-.4v-75.5l-133.5-133.5h-65.4V77.2h-37.3v133s-73.4,0-73.4,0V77.3h-37.3v133h-73.3V77.9h-37.3v132.4s-73.4,0-73.4,0V77.7h-37.3v132.5h-77.9l-133.5,133.5v78.7l-132.2-.4v37.3c-.1,0,132.2.4,132.2.4v73.4l-132.4-.4v37.3c-.1,0,132.4.4,132.4.4v73.4l-132.2-.4v37.3c-.1,0,132.2.4,132.2.4v73.4l-132.7-.4v37.3c-.1,0,132.7.4,132.7.4v64.5l133.5,133.5h83.5v132.9h37.3v-132.9h73.4v133h37.3v-133h73.4v132.4h37.3v-132.4h73.4v132.4h37.3v-132.4s59.8,0,59.8,0l133.5-133.5v-67.8l132.7.4v-37.3c.1,0-132.7-.4-132.7-.4v-73.4l133.2.4v-37.3c.1,0-133.2-.4-133.2-.4v-73.4ZM952.2,840.8l-111.6,111.6h-481.6l-111.6-111.6v-481.6l111.6-111.6h481.6l111.6,111.6v481.6Z"/>
  <g>
    <polygon class="cls-4" points="462.3 545.6 484.6 506.5 337.4 353.8 337.4 608.7 462.6 545.6 462.3 545.6"/>
    <polygon class="cls-2" points="691.9 733.8 598.5 733.8 507.7 733.8 462.4 654.4 566.7 591.6 522.4 545.6 462.6 545.6 337.4 608.7 337.4 862.4 827.8 862.4 696.4 726.1 691.9 733.8"/>
    <polygon class="cls-2" points="600.3 626.5 580.6 606 553.1 654.4 553.2 654.4 627.2 654.4 601.2 627.4 599.1 628.7 600.3 626.5"/>
    <polygon class="cls-2" points="337.4 337.6 337.4 353.8 484.6 506.5 507.6 466.2 601 466.2 620.5 466.2 862.1 344.5 862.1 337.6 337.4 337.6"/>
    <polygon class="cls-3" points="691.8 466.2 737.1 545.6 601.2 627.4 627.2 654.4 737.2 654.4 696.4 726.1 827.8 862.4 862.1 862.4 862.1 344.5 620.5 466.2 691.8 466.2"/>
    <polygon class="cls-3" points="580.6 606 600.3 626.5 646.5 545.6 646.3 545.6 522.4 545.6 566.7 591.6 600.4 571.3 580.6 606"/>
  </g>
</svg>