<?xml version="1.0" encoding="UTF-8"?>
<svg id="Layer_1" data-name="Layer 1" xmlns="http://www.w3.org/2000/svg" version="1.1" viewBox="0 0 1200 1200">
  <defs>
    <style>
      .cls-1 {
        fill: #00e2f2;
      }

      .cls-1, .cls-2 {
        stroke-width: 0px;
      }

      .cls-2 {
        fill: #fff;
      }
    </style>
  </defs>
  <path class="cls-2" d="M702.5,335.7c-30.6,18.2-35.6,6.4-6.9-13.9,8.8-4.7,17.6-4.8,26.3,0,3,1.7,4.5,1.1,6.2-1.6,6.2-9.7,10.8-20,13.2-31.3,1.5-6.7,2.4-13.5,3.5-20.3-.5-.3-1.1-.6-1.6-.9-56.5,48.5-112.9,97.1-169.7,145.9,6.7,5.9,13,10.8,18.7,16.4,12.3,11.9,19.1,26.4,19.1,43.7,0,29.2.1,58.3.1,87.5,0,6.5-2.1,8.2-8.5,6.6-2.4-.6-4.7-2.2-6.5-3.9-3.8-3.7-4.9-8.4-4.9-13.7,0-25.2,0-50.3,0-75.5,0-14-5.2-25.6-16.2-34.5-2.6-2.1-5.2-4.3-7.8-6.5-9.2-7.7-18.4-15.4-27.5-23.2-1.5-1.3-4.1-2.5-2.6-5.3,2.3-4.5,4.8-9,7.4-13.9,3.5,2.6,6.4,4.3,8.8,6.6,3.2,3,5.5,2.4,8.7-.3,37.5-32.3,75.2-64.5,112.8-96.7,27.9-23.9,55.7-48,83.5-72,1.4-1.2,3-2.1,5.6-4,.8,10.2,2.3,18.9,1.9,27.6-.3,8.2,2.9,13.2,8.6,18.8,26.1,25.5,51.8,51.6,77.3,77.7,17.6,18,39.4,21.5,61.6,9.4,1.9-1,3.8-2,5.7-3,.4.9.8,1.3.7,1.6-3.6,15.2-7.5,30.3-16.9,43.2-19.7,26.9-55.7,29.2-79.3,5.7-12.7-12.7-26.2-24.6-39.4-36.7-6.5-5.9-13.4-11.3-19.8-17.3-4.9-4.6-5.4-10-2.4-15.8,3.1-6.1,4.8-6.4,10.2-1.9.5.4.9.8,1.4,1.2,22.1,19,45.4,36.6,65.1,58.3,5,5.5,11.6,8.4,18.9,9.5,12.1,1.7,26.5-6.6,30.3-17.7-.5-.2-1-.5-1.6-.5-20.1-.7-36.1-9.5-49.9-23.9-22.5-23.6-45.5-46.6-68.3-69.8-1.3-1.3-2.7-2.5-4.6-4.1-1.1,4.1-1.9,7.1-2.9,10.2-7,22.9-18.5,42.8-37.9,57.5-27.7,21-55.2,42.2-82.9,63.2-3.3,2.5-3.6,4.3-1.8,7.8,5.6,10.8,10.9,21.8,16.1,32.8,6.7,14.2,8.7,29.1,4.9,44.4-6.8,27.5-14.1,54.9-21.3,82.3-6.3,23.9-12.8,47.8-18.9,71.8-4.6,18.3,4.6,35.2,22.3,41.2,1-3.8,2-7.6,2.9-11.5,14.2-59.6,28.3-119.2,42.5-178.7,1.7-7,5.4-14.2,4.5-20.8-.9-6.8-6.3-13.1-9.9-19.6-6.8-12.4-13.9-24.7-20.5-37.2-1.3-2.4-2.1-6-1.2-8.3,2.5-6.1,11.5-7.5,16.3-2.8,1.7,1.6,2.9,3.8,4.1,5.8,7.9,13.9,15.7,27.8,23.4,41.8,2.8,5.1,6.5,8.8,11.6,11.7,7.7,4.3,15.1,9,22.5,13.7,5.9,3.7,12,4.4,18.9,3.1,12.3-2.3,24.7-4.6,37.2-5.5,23.8-1.7,42.5,6.7,56.8,27.1,32.5,46,66.3,91.1,99.6,136.5,18.2,24.8,36.6,49.5,54.9,74.2,4.8,6.5,9.1,13.4,9.9,21.5.8,9.1.8,18.3.6,27.5-.1,6.6-4.2,10.2-10.2,10-5.6-.2-9.1-3.9-9.4-10.2-.2-4.2-.3-8.4,0-12.6,1-11.4-2.9-20.9-9.6-30-52.2-70.7-104.2-141.5-156-212.5-6.1-8.3-14-12.1-23.8-13-15.6-1.4-30.7,1.2-45.5,5.4-11.1,3.1-21.3,1.7-31-4.3-4.9-3-9.9-6.1-14.8-9-1.3-.8-2.7-1.3-4.6-2.1-.8,3-1.5,5.5-2.1,7.9-12.3,51.4-24.6,102.8-36.9,154.2-3.1,12.8-6.1,25.6-8.9,38.5-2,9.1,0,12.8,7.9,17.2,4.4,2.4,8.7,4.8,13.1,7.2,1.3.7,2.8,1.1,4.4,1.7.4-1.3.7-2,.9-2.7,6.8-31,13.8-61.9,20.4-92.9,3.7-17.5,9.7-34.7,8.6-53,0-.3.4-.7.9-1.6,13,9.4,28.1,6.5,42.7,7,9.8.3,19.6.1,29.3.7,9,.6,16.4,4.9,22.2,11.7,1.6,1.9,2.6,4.2,4.6,7.7-3.7,0-6,0-8.3,0-22.6,0-45.1.2-67.7,0-4.4,0-5.8,1.6-6.7,5.5-4.9,22.8-10.1,45.6-15.1,68.3-3.6,16.4-7.1,32.7-10.6,49.1-1.1,5.3-1.2,11.2,3.3,14.4,7.1,5.2,15.2,9,23,13.5.7-1.4,1.1-1.9,1.2-2.4,6.9-36.3,13.8-72.5,20.6-108.8,2.2-11.9,4.9-14.3,17.2-14.2,24.8,0,49.5.1,74.3.1,2.3,0,4.5-.3,6.8-.4-.2-1.2,0-1.7-.3-1.9-14.4-19.6-28.7-39.4-43.4-58.8-6.4-8.4-15.2-12.4-26.1-12.2-15.8.3-31.6.1-47.3,0-13.9,0-22.6-10.8-19.9-24.9,1.3.4,2.7.6,3.9,1.2,7.1,3.2,14.4,4.4,22.1,4.3,12.8-.2,25.6,0,38.4,0,19.9-.3,35.4,8.1,47,24,12.1,16.4,24,32.9,36.2,49.2,29.9,40.2,59.9,80.4,89.9,120.5,7.4,9.8,7.2,10.6-2.8,18.3-17.5,13.3-34.8,26.8-52.3,40.1-3,2.3-3.4,4.2-1.4,7.4,5.7,9.2,11.1,18.5,16.5,27.8,4.1,7.1,9.5,12.9,16.6,17,10,5.8,20.3,11.1,30.4,16.7,3.1,1.7,6.3,3.5,9.1,5.6,2.6,1.9,2.9,4.6,1.7,7.5-1.2,2.9-3.5,3.7-6.3,3.1-7-1.6-14.1-2.7-20.9-5-22.6-8-40.9-21.3-52.3-43.1-5.1-9.7-11.1-19-16.7-28.4-5.8-9.8-5.5-11.5,3.6-18.1.5-.3,1-.7,1.5-1,17-13.3,34-26.5,51.1-39.7,1.9-1.5,2.6-2.9.9-4.9-.9-1.1-1.6-2.3-2.5-3.4-19.1-25.6-38.3-51.2-57.3-76.8-2.1-2.8-4.2-4.2-7.9-4.1-28,.2-55.9.2-83.9.2-6.3,0-6.2,0-7.5,6.5-4.5,23.7-9.1,47.4-13.7,71.1-1.7,8.8-3.5,17.6-5,26.4-.9,5.2-1.3,11.1,3.4,14.4,7.5,5.2,15.7,9.2,24,14,.7-2.4,1.3-3.8,1.6-5.4,2.5-15.4,5-30.7,7.4-46.1,2.1-13.4,4.1-26.8,6.2-40.2,1.4-9.1,5-13,12.8-13,17.6,0,35.2.1,52.7.7,8.2.3,14.2,4.9,18,12.2,2.9,5.7,2.1,7-4.2,7-17.6.1-35.2.1-52.7.2-7.2,0-7.2,0-8.3,6.8-2.4,14.6-4.8,29.1-7.1,43.7-1.8,11.8-3.6,23.6-5.2,35.5-.9,7.1,1.9,12.1,8.5,15.6,10.2,5.4,20.4,11.1,30,17.4,18.8,12.3,27.2,29.6,23.5,52.3-.5,3.3-.4,6.8,0,10.1.9,8.3,6.1,14.1,12.3,19.1,5.8,4.7,11.6,9.5,17.9,14.6-8.2,2.5-15.4,2.2-22.6.1-18.9-5.3-30.4-24.4-27.5-44.9.7-5.2.9-10.8-.1-16-2.2-10.7-9.7-17.3-19-22.5-39.5-22.1-79-44.4-118.4-66.7-26.4-14.9-52.8-29.9-79.3-44.7-13.8-7.7-24-18.3-30-33-1.7-4.2-3.8-8.4-5.9-12.4-12.7-24.7-25.6-49.3-38.3-73.9-7.7-15-12.1-30.6-11.7-47.7.4-18.6,0-37.2,0-55.7,0-16.6-6.3-30.2-19.1-40.9-1.1-.9-2.3-1.5-3.4-2.3.2-.5.4-1,.6-1.5,1.8-.5,3.6-1.2,5.4-1.4,10.6-1.7,18.7,2.9,25.2,10.7,7.3,8.7,10.9,19.1,11,30.4.3,20.8.3,41.6.1,62.3-.1,13.1,2.9,25.3,8.9,36.8,7.8,15,15.7,30.1,23.6,45.1,1.4,2.6,2.8,5.2,4.6,8.5.9-2.2,1.6-3.6,2-5,1.4-5.2,2.8-10.4,4.1-15.6,10.4-39.6,20.7-79.1,31.1-118.7,3.4-12.9,2.1-25.3-3.9-37.2-4-7.8-7.7-15.8-11.6-23.7-6-12.2-12-24.4-18.2-36.5-1.5-3-1.1-4.5,1.9-6,6.6-3.2,12-2.8,17.6,2.4,2.5,2.3,4,2.2,6.5.3,26.2-20.3,52.5-40.5,78.8-60.6,1.4-1.1,2.9-2,4.7-3.2-5.3-3.2-8.1-3.7-12.3-1.2ZM509.2,387.9c-2.6-1.8-4.8-3.1-6.8-4.6-16.1-11.4-31.9-23.4-48.5-34.1-23.5-15.2-31-36.9-28.1-63.4.2-2.2.6-4.4.6-6.6,0-5.6-2.9-9.2-8.2-10.1-5.3-.9-10.3,1.9-11.1,7.5-1.2,8.5-2.2,17.1-1.8,25.6,1.2,25.3,12.6,45.3,33.5,59.9,19.5,13.6,38.7,27.6,58.1,41.4,4.9,3.5,4.9,3.6,2.7,9.2-2.4,5.9-4.8,11.7-7.3,17.9-8.7-6.3-16.9-12.2-25.1-18.1-18-12.9-35.9-26-54.1-38.7-14.1-9.8-23.6-23-30-38.7-1.9-4.6-3.5-9.4-5.7-13.8-2.7-5.6-7.8-7.6-12.8-5.5-4.9,2.1-7,6.7-5.1,12.4,8.4,25.4,21.3,47.4,44.3,62.9,22.2,14.9,43.5,31.2,65.3,46.7,13.2,9.4,20.1,21.4,19.7,38-.5,24.2.2,48.3-.1,72.5-.3,21,5.1,40.1,15.2,58.4,18,32.5,35.6,65.2,53.5,97.7,5.7,10.4,10.8,20.9,9.4,33.4.4.1.8.3,1.2.4,1.6-1.6,3.5-2.9,4.9-4.7,7.8-10.1,8.5-21.3,4.1-32.9-1.9-5-4.6-9.8-7.1-14.5-16.3-29.8-32.7-59.5-49-89.2-5-9.1-9.4-18.6-10.8-29-.7-5.5-1-11.1-1-16.7-.1-24,.2-47.9-.2-71.9-.1-8.1-1.9-16.2-2.7-24.3-.2-2.1-.2-4.4.5-6.3,10.7-27.3,21.5-54.6,32.2-81.9.4-.9.8-1.8,1.1-2.8,2.2-5.9,2.2-6.4-2.8-10-6.5-4.7-13.1-9.2-19.6-13.7-8.8-6.2-17.7-12.3-26.5-18.5-20-14.1-27.4-33-21.7-56.9,3-12.6,7.2-24.9,10.9-37.3.6-2,1.2-4.1,2-7.1-10.7,4.4-18.5,10.7-24.2,19.3-16.1,24.2-17.4,68.5,17.7,94.9,11.8,8.9,24.1,17.1,36.2,25.6,1.3.9,2.9,1.6,3.8,2.9.9,1.2,2.1,3.2,1.7,4.4-2.4,6.7-5.2,13.3-8.1,20.5ZM537.8,822.6c-2.2-3.2-4-5.6-5.5-8.1-34.4-58.7-68.7-117.5-103.1-176.2-8.2-14-12.3-28.8-12.2-45,.2-33.9,0-67.9.2-101.9,0-4.5-1.3-7.3-5-9.9-36-25.5-71.9-51.1-107.9-76.7-.5-.3-1-.7-1.5-1-6-4-11.2-3.4-14.7,1.5-3.6,5.1-2.2,10.4,3.9,14.7,33.2,23.6,66.3,47.3,99.6,70.8,4.3,3,5.8,6.3,5.7,11.4-.2,30.2.2,60.3-.3,90.5-.3,19.4,4.7,37,14.4,53.6,32.3,55.1,64.4,110.3,96.6,165.5,5.4,9.3,11.1,18.5,16.4,27.9,1.4,2.5,2.1,5.6,2.2,8.4.2,24.4.4,48.7,0,73.1-.3,20.8,5.9,39.3,17.9,56,5.2,7.3,11.1,14.1,17,20.9,4.5,5.2,9.6,5.7,14.2,2,4.7-3.7,5.2-9.4,1-14.9-4.1-5.4-8.7-10.4-12.9-15.8-8.3-10.7-15-22.1-16.7-35.9-.3-2.8-.6-5.6-.6-8.3,0-23.8-.1-47.5,0-71.3,0-3.2,1-6.7,2.6-9.5,20-35,40.1-69.9,60.2-104.9.8-1.4,1.6-2.8,2.1-4.3,2.1-5.3.2-10.8-4.6-13.4-5-2.7-10.1-1.4-13.3,4-8.6,14.6-16.9,29.4-25.3,44.2-9.1,15.9-18.2,31.9-27.4,47.8-.8,1.4-1.8,2.6-3.3,4.9ZM757.7,381.1c3.4,5.3,6.7,10.7,10.4,15.9,1,1.5,3.1,2.5,4.9,3.1,15.4,4.6,27.2,14.1,36.2,27.1,19,27.4,37.8,54.9,56.7,82.4,36.4,52.9,73,105.9,109.3,158.9,15.4,22.4,30,45.3,45.6,67.5,15.4,21.8,14.1,43.1.4,64.7-5.7,8.9-11.8,17.6-16.4,27.1-4.7,9.8-8.9,20.2-11.5,30.7-6.3,26.1-35.9,40.9-61.6,28.6-10.2-4.8-18.4-11.9-25.1-20.8-2.8-3.7-5.4-7.4-8.5-10.8-3-3.2-8.7-3.5-12.1-1-4.1,3-5.5,7.7-2.6,12.2,12.4,19.2,27.6,35.2,50.6,41.7,34.3,9.8,69.4-9.8,78.5-44.3,4.5-17,11.5-32.7,21.5-47.1,7-10.1,12.8-20.7,15.8-32.7,4.5-18.4,1.8-35.8-8.4-51.7-10.3-15.9-21.1-31.5-31.8-47.2-47.7-69.7-95.4-139.4-143.1-209.1-13.2-19.3-26.3-38.6-39.6-57.8-12.4-17.7-28.4-30.8-49.5-36.7-6-1.7-12.5-1.9-18.7-2.7-.3.7-.6,1.3-.9,2ZM188,651.1c0,13.2,4.6,23.4,15.4,30.4,7.7,4.9,15.8,9.3,23.5,14.4,10.6,7,17.6,16.7,20,29.4.2,1.2.5,2.4.9,3.5,8.1,23.9,22.7,41.5,48,48.4,4.7,1.3,9.9,1.7,14.8,1.7,19.6.2,39.2.1,58.7,0,4,0,6.5.9,8.5,4.7,6.6,12.1,14,23.7,20.4,35.9,4.8,9.3,11.3,14.1,22,12.5,1.6-.2,3.2-.1,4.8-.2.4,0,.7-.3,1.9-.7-.9-1.7-1.6-3.4-2.6-5-28.1-48.8-56.3-97.5-84.3-146.4-3.6-6.2-6.6-12.8-8.9-19.5-8-23-22.3-40.6-42.9-53.6-29.8-18.7-59.3-37.8-88.9-56.7-1.7-1.1-3.4-2.2-5.2-2.9-4.4-1.8-8.7-.2-11.5,3.9-2.8,4.1-2.4,8.5,1,12,1.3,1.2,2.8,2.2,4.3,3.2,30.2,19.2,60.3,38.4,90.6,57.4,14.4,9,25.7,20.7,31.2,36.7,5.2,15.1,13,28.7,20.9,42.3,9.5,16.4,19,32.8,28.5,49.3,1.1,1.9,2,3.8,3.4,6.4-2,.3-3.5.7-4.9.7-15,0-30,.2-44.9.1-22.5,0-39-12.7-45.4-34.4-1.4-4.8-2.5-9.7-4.4-14.3-5.7-14.3-15.7-25-28.6-32.9-14-8.6-28.2-16.6-42.4-24.8-1-.6-2.2-.8-3.9-1.4ZM503.7,901.4c7.5-13.4,7.4-26,.3-38.4-8.3-14.3-17-28.4-25.4-42.7-32.1-54.7-64.2-109.5-96.3-164.2-6.5-11.1-10.1-22.9-10-35.9,0-9,0-18,0-27-.3-19.7-8.4-35.7-24.3-47.1-17.8-12.8-36.3-24.7-54.5-37-15.4-10.4-30.8-20.8-46.1-31.2-6.5-4.4-11.4-4.2-15.1.8-3.7,5-2.1,11,4.2,15.2,30.1,20.3,60.3,40.6,90.4,60.9,3.5,2.3,7,4.7,10.3,7.2,9.9,7.7,15.1,17.8,15,30.5,0,8.4.1,16.8,0,25.2-.3,16.6,4,31.9,12.4,46.2,30.4,51.6,60.7,103.3,91,154.9,12.9,21.8,26,43.6,38.9,65.4,3.1,5.3,5.9,10.8,9.4,17.2ZM215.9,816.1c3.8,9.3,8.8,16.1,16,20.6,23.4,14.6,47.5,27.9,74.9,33.7,5.2,1.1,10.7,1,16.1,1,30.2,0,60.3.3,90.5,0,14.7-.2,24.9,5.6,32.3,18.4,18.3,31.6,37.2,62.9,55.9,94.2.9,1.5,1.8,3.1,2.8,4.6,6.9,10.8,15.1,14.1,28.6,11.2-1-1.8-1.8-3.6-2.8-5.2-22.2-37.4-44.4-74.8-66.8-112.1-3.7-6.1-8-12-13-17.1-8.9-9.1-20.1-13.5-32.9-13.5-30.6,0-61.1-.3-91.7.1-15.6.2-30-3.4-43.8-10.3-12.7-6.4-25.3-12.9-38.2-18.7-6.5-2.9-13.5-4.6-20.4-6.5-2-.6-4.3-.3-7.5-.5ZM453.6,955.4c-8.9-13.9-16.9-28.5-26.8-41.6-8.7-11.6-21.5-18.1-36.2-18.7-19.3-.7-38.7-.4-58.1-.5-5.4,0-10.8-.1-16.2-.1-8.2,0-15.8-2.1-23-5.8-8.3-4.3-16.5-9-24.7-13.5-1.7-1-3.4-2.1-5.3-2.8-4.4-1.9-8.4-.7-11.1,3-2.6,3.6-2.6,8.3.1,11.7,1,1.2,2.3,2.3,3.6,3.1,10.5,5.7,21,11.6,31.7,16.9,9,4.5,18.8,6.7,28.9,6.7,22.6.1,45.1.4,67.7.4,15.2,0,26.4,6.7,33.9,19.7.6,1,.9,2.1,1.7,4-2.7.2-4.7.4-6.8.4-23.2,0-46.3,0-69.5,0-2.8,0-5.6,0-8.4.1-5,.4-7.8,3.1-8.4,7.7-.6,5.1,1.8,9.3,6.6,10.7,2.1.6,4.3.7,6.5.7,35.7,0,71.5,0,107.2,0,1.7,0,3.5-.2,5.2-.4.4-.5.7-1,1.1-1.6ZM443.8,501.4c-.2,3.5-.5,5.8-.5,8.1,0,21.2,0,42.3,0,63.5,0,17,4.3,32.6,12.6,47.4,24.7,43.8,49.3,87.7,73.8,131.6,5.2,9.2,10.4,18.5,12.2,29.1.1.7.7,1.3,1.3,2.5,8.7-9.3,10.5-19.9,7.2-31.3-1.5-5.3-4.1-10.4-6.8-15.2-23.1-41.3-46.2-82.5-69.5-123.7-7-12.5-11-25.5-10.7-39.9.3-14.4-.4-28.8.3-43.1.5-11.8-4.2-20-14.2-25.5-1.6-.9-3-1.8-5.8-3.4ZM547.9,209.6c-15.3-6.4-31.2-1.7-42.1,11.7-17.5,21.6-18.1,51.7-1.7,75.2,5.9,8.5,13.7,14.9,22.1,20.8,6.7,4.6,13.4,9.4,19.5,14.9,9.6,8.7,14.7,19.9,15.6,32.7.3,4.4-.8,9-1.4,14.2,9.6-4.8,14.7-12.1,16.5-21.8,1.5-7.7-.1-15.1-4-21.9-6.2-11.1-15-19.6-25-27-6.6-4.9-13.6-9.3-19.7-14.7-17.9-15.7-20.6-41.7-5.8-60.4,5.7-7.3,13.5-13,20.3-19.3,1.6-1.4,3.4-2.6,5.7-4.4ZM173.3,589.4c.2,13,5,22.6,13.5,30.2,4,3.6,8.5,6.7,13.1,9.4,15.9,9.5,32,18.8,48.1,28.1,13.3,7.7,22.6,18.4,27.7,33.2,3.6,10.7,8.4,21.1,13.4,31.4,5.8,12.1,12.6,16.8,29.9,13.7-.7-1.5-1.3-2.9-2.1-4.2-9.5-15.3-17.1-31.6-23.1-48.6-6.2-17.4-17.3-30.9-33.1-40.4-23.8-14.3-47.7-28.4-71.5-42.6-4.9-2.9-9.7-6.2-15.9-10.1ZM373.1,825.7c-2.9-11-13.6-19-25.6-19.4-10.8-.4-21.6-.5-32.3,0-18.2.7-34.7-4.4-50.3-13-25.5-14.1-50.9-28.3-76.4-42.5-1.8-1-3.7-1.9-5.6-2.9-.4.3-.7.6-1.1.9.9,2.5,2.1,4.9,2.8,7.5,3.9,14.3,13.3,23,26.5,29.5,16.6,8.1,32.4,18,48.9,26.7,17.8,9.4,36.6,14.3,57,13.5,16.4-.6,32.7-.1,49.1-.2,2.2,0,4.3,0,7.1,0ZM869.3,275.1c-1.5,4.7-2.6,9.6-4.5,14.1-2.9,7-6.4,13.7-9.5,20.7-1.5,3.3-3,4.1-6.2,1.8-5.6-3.9-11.9-5.6-18.7-4-1.2.3-2.3.6-3.4,1.1-2.8,1.1-3.2,2.7-1.1,4.9.4.4.8.9,1.2,1.4,8,8.3,16.2,16.6,24.1,25.1,2.6,2.7,4.3,2.6,6.7-.1,9.1-10.3,16.1-21.8,21.7-34.3,6.6-14.8,11.1-30.3,14-46.3.8-4.7.7-8.8-3.4-11.8-4.2-3.1-8.5-2.5-12.9-.2-19.5,10.2-39,20.2-58.4,30.3-6,3.1-11.9,6.3-18.8,9.9,4.6,4.6,8.8,8.8,13,12.9,2.2,2.2,4,.2,5.9-.7,15.6-8.1,31.2-16.2,46.8-24.3.9-.4,1.8-.8,2.6-1.2l1.2.7ZM466.9,489.2c1.8-13.4-2.2-23.6-12.2-30.9-16-11.9-32.3-23.4-48.5-35-25.3-18.1-50.7-36.1-76.2-54-2.6-1.8-6.1-3.3-9.2-3.4-3.8,0-6.6,2.8-7.9,6.4-1.3,3.7-.6,7.1,2.2,9.9,1,1,2.1,1.8,3.2,2.6,47.8,33.7,95.5,67.4,143.3,101.2,1.4,1,2.9,1.8,5.2,3.2ZM594.7,348.7c10.7-7.6,17.4-16.6,18.9-28.8.7-5.5.7-11.1.7-16.7.2-13.6,0-27.2.4-40.7.5-14,5.8-26,16.5-35.3,5.8-5.1,12.1-9.8,18.7-15.1-5.4-3.2-11-3.7-16.6-3.2-11,.9-19.5,6.5-26.1,15.2-7.9,10.5-12.5,22.6-12.8,35.5-.6,28.3-.4,56.7-.5,85,0,1,.3,1.9.8,4ZM241.2,752c-8.5-11-16.8-22.2-25.7-32.8-3.1-3.7-7.8-6.1-12.1-8.7-6-3.6-12.2-6.7-18.2-10.3-8.2-4.8-12.7-12.3-12.8-21.7,0-9.7,1-19.5,1.7-29.2.2-3.6.8-7.1,1-10.7.5-6.5-3.3-11.2-9.2-11.7-5.3-.4-9.8,3.8-10.5,10.1-1.1,11.3-2.4,22.6-2.9,34-.2,6.1.5,12.4,2,18.3,2.7,11,8.6,20.3,18.6,26.2,21.5,12.6,43.2,24.9,64.8,37.3.6.4,1.4.5,2,.7.4-.5.8-1,1.2-1.5ZM327,602.1c.3-10.7-2.7-19.2-9.3-26.1-2.8-3-6.1-5.8-9.6-8-29-18.7-58.1-37.2-87.2-55.8-6.2-4-10.9-3.1-14.4,2.2-2.8,4.2-2.4,8.3,1.1,11.9,1.1,1.1,2.4,2.1,3.8,2.9,37.4,23.8,74.7,47.5,112.1,71.2.8.5,1.7.8,3.5,1.7ZM373.1,531.6c1.2-10.1-.8-18.5-6.9-25.7-2.6-3-5.6-5.7-8.8-8-27.6-19.7-55.4-39.2-83.1-58.8-5.3-3.8-10.8-3.1-14.2,1.4-3.6,4.7-2.4,10.7,3.1,14.5,35.1,24.7,70.3,49.3,105.4,73.9,1.2.9,2.6,1.5,4.6,2.6ZM871.6,804c-2-1.9-2.8-2.8-3.7-3.5-7.5-5.1-10.4-12.2-9.6-21.1.9-10.5,1.6-21.1,2.4-31.6.4-5.4.7-5.7,6.1-5.8,9.2,0,18.3-.1,27.5-.1,3.5,0,6.8-.6,9-3.7,2.2-3.1,3.2-6.4,1.6-10.1-1.6-3.6-4.5-5.6-8.4-5.8-7.2-.2-14.4-.2-21.5-.2-7.2,0-14.4-.2-21.5,0-6.9.1-10.9,3.5-11.4,10.4-1.4,16.7-2.2,33.4-3.6,50.1-1.1,14.3,9.5,23.3,23,22.6,2.9-.2,5.9-.7,10.1-1.3ZM811.8,473.8c-1.3-2.2-2.1-3.9-3.2-5.5-18.9-28.9-37.7-57.7-56.7-86.6-2-3-4.1-6-6.5-8.5-6-6.3-14.8-7.3-22.6-2.6.6,1.1,1.1,2.4,1.8,3.5,19,29.3,38.3,58.4,56.9,87.9,7.2,11.5,17,14,30.2,11.9ZM580.3,297.7c-1.8-2.2-2.9-3.6-3.9-4.9-6.6-8.2-12-16.9-13.4-27.6-1.8-13.3,1.5-25.2,11.3-34.4,7.1-6.7,15.1-12.4,22.7-18.4,1.5-1.2,3.2-2.2,5.7-3.8-7.7-3.8-14.8-4.7-22.2-3.1-11.3,2.5-19.8,9.3-26.6,18.2-11.1,14.6-14.3,31-9.9,48.7,3.7,15.1,14.7,24.2,30.1,25.6,1.7.1,3.4-.1,6.2-.3ZM693.9,221.2c-7.9-4.4-16.1-5.2-24.6-2.6-12.2,3.8-19.4,12.7-24.3,24-4.5,10.3-4.9,21.3-6.1,32.2-1.3,12.1-2.6,24.2-3.8,36.3-.1,1.3,0,2.7,0,5.4,7-4.6,12.1-9.7,16.3-15.7,6.1-8.6,8.5-18.5,8.5-28.8,0-23.1,12.2-38,31.5-48.4.7-.4,1.4-.8,2-1.2.1,0,.2-.3.5-1.1ZM960.7,792.5c3.7-3.2,7.6-3.8,11.9-3.8,6.4,0,9.8-2.5,10.5-7.4.7-5-2.4-9.1-8.2-10.9-6.3-1.9-12.5-1.1-18,1.7-6,3-11.5,7.1-16.7,11.3-4.1,3.3-4.6,8.6-1.6,13,11.5,16.7,24.7,31.3,45.3,37,3.7,1,6,.9,7.5-3,1.1-3,2.6-5.8,4-8.7,1.3-2.7,1-4.3-2.3-5.2-4-1.2-7.9-2.7-11.7-4.4-9-4.1-15.4-10.2-20.8-19.6ZM475.8,1000.7c-1.6-2.7-2.4-4.7-3.8-6.3-5.9-6.7-13.1-11.5-22.1-11.7-22.4-.6-44.7-.7-67.1-.7-6,0-9.6,3.8-9.8,9.2-.1,5.3,3.3,9.2,9.1,10,1.8.2,3.6.2,5.4.2,26.8,0,53.5-.2,80.3-.3,2.3,0,4.6-.3,8.1-.5ZM759.5,474.7c-1.5-2.7-2.2-4.2-3.2-5.7-13.2-20.2-26.4-40.4-39.6-60.6-3.3-5.1-6.9-9.9-13.4-11.1-2.1-.4-4.4-.5-6.5,0-5.8,1.4-6.9,4-3.7,9,12.8,20,25.7,39.9,38.7,59.8,3.9,5.9,9.3,9.1,16.6,8.7,3.3-.2,6.6,0,11,0ZM677.9,279.8c17.6-14,35.1-27.9,52.7-41.9-8.1-8.7-20.7-8.3-28.2-3.2-6.2,4.3-11,9.8-14.8,16.2-5.2,8.8-7.7,18.6-11.1,28.1.5.3,1,.6,1.4.9Z"/>
  <g>
    <path class="cls-1" d="M814.5,721.1c-3.9-3.4-9-5.4-14.6-5.4s-3.3.2-4.9.5c-.6,4-1.2,8-1.8,11.9-1.5,9.7-3.1,19.5-4.7,29.2,3.3,2,7.2,3.1,11.4,3.1s6-.6,8.6-1.7c.7-4.4,1.3-8.8,2-13.2,1.3-8.2,2.6-16.3,4-24.5Z"/>
    <path class="cls-1" d="M316.9,825.8c6.4-.2,12.8-.3,19.1-.3,1.3-2.9,2.1-6,2.1-9.4s-.9-7.1-2.5-10.2c-6.8,0-13.7,0-20.5.2-6.5.3-12.7-.2-18.8-1.4-2,3.3-3.1,7.2-3.1,11.3s.6,5.7,1.6,8.2c7.2,1.2,14.5,1.7,22.1,1.4Z"/>
    <path class="cls-1" d="M544,272.4c.3,1.3.7,2.5,1.1,3.7,2.7,1.1,5.6,1.7,8.7,1.7s8.2-1.2,11.6-3.2c-1.1-3-2-6.1-2.4-9.4-1.4-10,.2-19.2,5.2-27.1-3.9-3.2-8.9-5.2-14.3-5.2s-4.2.3-6.2.9c-5.8,11.9-7,24.8-3.6,38.5Z"/>
    <path class="cls-1" d="M582,748.6c-.5,0-.9,0-1.4,0-4,7.1-8.1,14.2-12.1,21.3-2.2,3.8-4.3,7.5-6.5,11.3,3.2,6.3,9.3,10.8,16.5,11.9,6.9-12.1,13.9-24.2,20.9-36.3-4.1-5.1-10.4-8.3-17.4-8.3Z"/>
    <path class="cls-1" d="M297.4,535.1c5.8-3.3,9.9-9.1,11-16-5-3.3-10-6.7-14.9-10-6.2-4.2-12.5-8.4-18.7-12.7-5.7,3.4-9.7,9.3-10.7,16.2,11.1,7.5,22.3,15,33.4,22.5Z"/>
    <path class="cls-1" d="M738.3,553.8c15.8,0,31.6.2,47.3,0,6.2-.1,11.7,1.1,16.5,3.8l7.4-17.2c-7.8-4.1-16.7-6.1-26.7-6-12.8.2-25.6,0-38.4,0-7.7.1-15.1-1.1-22.1-4.3-1.2-.6-2.6-.8-3.9-1.2-2.7,14.1,6,24.9,19.9,24.9Z"/>
    <path class="cls-1" d="M510.1,567.8c-.7-5.5-1-11.1-1-16.7,0-6.1,0-12.1,0-18.2-3.1-1.6-6.5-2.5-10.2-2.5s-7.1.9-10.1,2.4c0,5.1,0,10.3-.1,15.4-.1,8.9.8,17.4,2.6,25.7,2.4.9,4.9,1.4,7.6,1.4,4.4,0,8.4-1.3,11.9-3.4-.3-1.3-.5-2.7-.7-4.1Z"/>
  </g>
</svg>